<svg xmlns="http://www.w3.org/2000/svg" width="57" height="48" viewBox="0 0 57 48">
    <defs>
        <style>
            .cls-3{fill:#0f1f2e}
        </style>
    </defs>
    <g id="BI" transform="translate(-58.387 -64)">
        <path id="Box" fill="rgba(255,255,255,0)" d="M0 0H57V48H0z" transform="translate(58.387 64)"/>
        <g id="logo" transform="translate(18.387 68.41)">
            <g id="BI-2" transform="translate(40 15.408)">
                <g id="Shape">
                    <path id="패스_309" fill="#fff" d="M301.072 833.2h-7.183v7.183a.5.5 0 0 1-1 0V833.2h-7.184a.5.5 0 1 1 0-1h7.184v-7.183a.5.5 0 1 1 1 0v7.183h7.183a.5.5 0 1 1 0 1m-7.682-13.281a12.782 12.782 0 1 0 12.783 12.781 12.782 12.782 0 0 0-12.782-12.782" transform="translate(-258.173 -819.916)"/>
                    <path id="패스_310" d="M225.044 829.973a8.221 8.221 0 0 1 15.485 0 .318.318 0 0 1-.3.424h-14.885a.318.318 0 0 1-.3-.424m13.349 9.037a.211.211 0 0 0-.32-.054 8.224 8.224 0 0 1-13.029-3.535.318.318 0 0 1 .3-.424h16.3a13.462 13.462 0 0 1 1.809-9.383 12.786 12.786 0 1 0-3 17.329.212.212 0 0 0 .056-.275z" transform="translate(-219.958 -819.915)"/>
                </g>
            </g>
        </g>
        <g id="그룹_19013" transform="translate(97.387 66.6)">
            <path id="패스_13738" d="M142.168 82.576h8.9v1.887H144.2v2.315h4.693v1.808H144.2v2.491h5.613v1.871h-7.644z" class="cls-3" transform="translate(-142.168 -82.576)"/>
            <path id="패스_13739" d="M147.732 82.576h2.2l2.612 7.712a.106.106 0 0 0 .2 0l2.6-7.712h2.156l-3.71 10.241a.2.2 0 0 1-.186.131h-1.958a.2.2 0 0 1-.186-.131z" class="cls-3" transform="translate(-139.501 -82.576)"/>
        </g>
    </g>
</svg>
