<svg xmlns="http://www.w3.org/2000/svg" width="57.6" height="12" viewBox="0 0 57.6 12">
    <defs>
        <style>
            .cls-2{fill:#888}
        </style>
    </defs>
    <g id="gsnpoint" transform="translate(-3146.804 -367.095)">
        <g id="그룹_18194" data-name="그룹 18194" transform="translate(3172.602 368.351)">
            <path id="패스_12797" data-name="패스 12797" class="cls-2" d="M3275.105 369.914a3 3 0 0 0-2.091-.681h-2.352v8.7h1.391v-3.549h.682c2.025 0 3.142-.938 3.142-2.635a2.365 2.365 0 0 0-.772-1.835zm-3.052.409h.563c1.237 0 1.816.483 1.816 1.519 0 .988-.586 1.449-1.846 1.449h-.533z" transform="translate(-3270.663 -369.148)"/>
            <path id="패스_12798" data-name="패스 12798" class="cls-2" d="M3303.159 368.815c-2.329 0-3.611 1.6-3.611 4.518 0 2.681 1.344 4.349 3.5 4.349 2.327 0 3.609-1.607 3.609-4.519.004-2.682-1.337-4.348-3.498-4.348zm-.108 7.777c-1.909 0-2.057-2.494-2.057-3.259 0-2.212.769-3.428 2.165-3.428 1.911 0 2.058 2.494 2.058 3.259 0 2.211-.769 3.428-2.166 3.428z" transform="translate(-3293.641 -368.815)"/>
            <path id="패스_12799" data-name="패스 12799" class="cls-2" d="M3342.088 369.232h-1.288v8.7h1.391v-8.7z" transform="translate(-3326.461 -369.147)"/>
            <path id="패스_12800" data-name="패스 12800" class="cls-2" d="M3362.2 369.233h-1.23v6.706l-3.369-6.706h-1.63v8.7h1.338v-6.661l3.369 6.661h1.631v-8.7z" transform="translate(-3338.527 -369.148)"/>
            <path id="패스_12801" data-name="패스 12801" class="cls-2" d="M3397.021 369.233h-5.561v1.138h2.14v7.559h1.393v-7.559h2.137v-1.138z" transform="translate(-3366.759 -369.148)"/>
        </g>
        <g id="그룹_18195" data-name="그룹 18195" transform="translate(3147.435 368.31)">
            <path id="패스_12802" data-name="패스 12802" class="cls-2" d="M3151.849 377.574c-2.741 0-4.256-1.8-4.256-4.464 0-2.68 1.639-4.493 4.3-4.493a5.318 5.318 0 0 1 2.641.638l-.288 1.862a4.265 4.265 0 0 0-2.3-.736c-1.485 0-2.213 1.1-2.213 2.714s.754 2.763 2.239 2.763a2.3 2.3 0 0 0 1.163-.275v-1.536h-1.5l-.254-1.589H3155v4.2a5.671 5.671 0 0 1-3.153.914" transform="translate(-3147.593 -368.617)"/>
            <path id="패스_12803" data-name="패스 12803" class="cls-2" d="M3192.161 377.748a7.1 7.1 0 0 1-3.014-.649l.308-1.826a6.147 6.147 0 0 0 2.744.8c.614 0 1.034-.262 1.034-.775 0-.486-.25-.715-1.463-1.176-1.724-.664-2.474-1.225-2.474-2.655 0-1.665 1.3-2.551 2.949-2.551a5.531 5.531 0 0 1 2.609.577l-.332 1.8a4.711 4.711 0 0 0-2.251-.7c-.65 0-.96.276-.96.677 0 .437.238.651 1.314 1.065 1.877.685 2.629 1.338 2.629 2.714 0 1.876-1.378 2.7-3.094 2.7" transform="translate(-3180.65 -368.855)"/>
        </g>
        <path id="패스_12804" data-name="패스 12804" class="cls-2" d="M3228.519 375.088c0-.859.56-1.27 1.22-1.718l2.092 2.453a2.151 2.151 0 0 1-1.606.834 1.61 1.61 0 0 1-1.706-1.569zm4.545-2.329a4.158 4.158 0 0 1-.536 2.1l-1.769-2.017a2.748 2.748 0 0 0 1.906-2.266 1.931 1.931 0 0 0-2.154-1.967 2.009 2.009 0 0 0-2.266 2.042 3.054 3.054 0 0 0 .9 1.98 2.631 2.631 0 0 0-1.943 2.54c0 1.456 1.083 2.428 2.8 2.428a3.009 3.009 0 0 0 2.491-1l.71.847h1.556l-1.519-1.718a5.776 5.776 0 0 0 1-2.976zm-3.649-2.079a1.014 1.014 0 0 1 1.046-1.12.932.932 0 0 1 1.034 1.071c0 .734-.785 1.27-1.307 1.519a2.308 2.308 0 0 1-.773-1.47z" transform="translate(-63.485 -.304)"/>
    </g>
</svg>
