<svg xmlns="http://www.w3.org/2000/svg" width="24" height="24" viewBox="0 0 24 24">
    <g transform="translate(-711 280) rotate(-90)">
        <circle cx="12" cy="12" r="12" opacity="0.2" transform="translate(280 711) rotate(90)"/>
        <path fill="#fff" d="M-7096.293-846.475q-.026-.025-.048-.052l-4.4-4.4a1 1 0 0 1 0-1.415 1 1 0 0 1 1.415 0l3.746 3.746 3.746-3.746a1 1 0 0 1 1.415 0 1 1 0 0 1 0 1.415l-4.4 4.4-.048.052a1 1 0 0 1-.389.241 1 1 0 0 1-.322.053 1 1 0 0 1-.715-.294z" transform="translate(7363.587 1573.586)"/>
    </g>
</svg>
