<svg xmlns="http://www.w3.org/2000/svg" width="20" height="20" viewBox="0 0 20 20">
    <defs>
        <style>
            .cls-2{fill:#0f1f2e}
        </style>
    </defs>
    <g id="icon-drink" transform="translate(-286 -66)">
        <path id="area" fill="rgba(255,255,255,0)" d="M0 0H20V20H0z" transform="translate(286 66)"/>
        <g id="Shape" transform="translate(9 -1)">
            <path id="패스_13655" d="M-1 0h8l-.889 10H-.111z" class="cls-2" transform="translate(280 75)"/>
            <path id="선_246" fill="none" stroke="#0f1f2e" stroke-linecap="round" d="M0 0L8 0" transform="translate(279 73.5)"/>
            <path id="패스_13656" fill="none" stroke="#0f1f2e" d="M5313-13002.5l1-2.5h2.5" transform="translate(-5029 13076)"/>
        </g>
        <g id="그룹_18923">
            <path id="사각형_6714" d="M3 0a3 3 0 0 1 3 3v9a1 1 0 0 1-1 1H1a1 1 0 0 1-1-1V3a3 3 0 0 1 3-3z" class="cls-2" transform="translate(298 71)"/>
            <rect id="사각형_6715" width="3" height="5" class="cls-2" rx="1" transform="translate(299.5 69)"/>
        </g>
    </g>
</svg>
