<svg xmlns="http://www.w3.org/2000/svg" width="32" height="32" viewBox="0 0 32 32">
    <g>
        <g>
            <path fill="#222" d="M7554.555 20074.684a12 12 0 1 1 12-12 12.014 12.014 0 0 1-12 12zm0-9a2.5 2.5 0 1 0 2.5 2.5 2.5 2.5 0 0 0-2.5-2.498zm6.5-2a1.5 1.5 0 1 0 1.5 1.5 1.5 1.5 0 0 0-1.501-1.498zm-13 0a1.5 1.5 0 1 0 1.5 1.5 1.5 1.5 0 0 0-1.499-1.498zm11-7a2.5 2.5 0 1 0 2.5 2.5 2.5 2.5 0 0 0-2.501-2.5zm-9 0a2.5 2.5 0 1 0 2.5 2.5 2.5 2.5 0 0 0-2.499-2.5z" transform="translate(-2.383 -2) translate(-194.172 -635.684) translate(-7342 -19409)"/>
        </g>
    </g>
</svg>
