<svg xmlns="http://www.w3.org/2000/svg" width="20" height="21.949" viewBox="0 0 20 21.949">
    <defs>
        <style>
            .cls-4{fill:none}.cls-2{fill:#0f1f2e}.cls-4{stroke:#0f1f2e;stroke-linecap:round}
        </style>
    </defs>
    <g id="icon_24hour" transform="translate(-286 -66)">
        <path id="Box" fill="none" d="M0 0H20V20H0z" transform="translate(286 66)"/>
        <g id="Shape" transform="translate(107.5 6.928)">
            <circle id="타원_1402" cx="6" cy="6" r="6" class="cls-2" transform="translate(182.5 63.072)"/>
            <text id="_24" fill="#fff" font-family="Montserrat-Bold, Montserrat" font-size="6px" font-weight="700" transform="translate(188.5 71)">
                <tspan x="-3.807" y="0">24</tspan>
            </text>
            <path id="패스_8973" d="M8 0a8 8 0 1 1-8 8" class="cls-4" transform="translate(196.5 77) rotate(180)"/>
            <path id="패스_8975" d="M16 8a8 8 0 0 1-8 8" class="cls-4" transform="translate(188.487 57.686) rotate(45)"/>
            <path id="패스_8974" d="M.626.122a.5.5 0 0 1 .5.5v1.5a.5.5 0 1 1-1 0v-1.5a.5.5 0 0 1 .5-.5z" class="cls-2" transform="translate(194.5 68.011) rotate(-45)"/>
            <rect id="사각형_4716" width="1" height="2.5" class="cls-2" rx=".5" transform="translate(197.567 67.304) rotate(45)"/>
        </g>
    </g>
</svg>
