<svg xmlns="http://www.w3.org/2000/svg" width="32" height="32" viewBox="0 0 32 32">
    <defs>
        <style>
            .cls-2{fill:#222}
        </style>
    </defs>
    <g id="icon-terminal-02-filled" transform="translate(-2.383 -2)">
        <g id="그룹_18924" transform="translate(2 2)">
            <path id="빼기_129" d="M7450.385 19437a12 12 0 1 1 12-12 11.92 11.92 0 0 1-12 12zm0-9a3 3 0 1 0 3 3 3 3 0 0 0-3-3zm6-5.5a2.5 2.5 0 1 0 2.5 2.5 2.5 2.5 0 0 0-2.5-2.5zm-12 0a2.5 2.5 0 1 0 2.5 2.5 2.5 2.5 0 0 0-2.5-2.5zm6-6.5a3 3 0 1 0 3 3 3 3 0 0 0-3-3z" class="cls-2" transform="translate(-7434 -19409)"/>
            <path id="합치기_168" d="M7429.535 19411.244l-2.829 2.828-.707-.707 2.829-2.828-2.829-2.828.707-.707 2.829 2.828 2.828-2.828.707.707-2.828 2.828 2.828 2.828-.707.707z" class="cls-2" transform="translate(-7413.152 -19400.535)"/>
            <path id="합치기_169" d="M7429.535 19411.244l-2.829 2.828-.707-.707 2.829-2.828-2.829-2.828.707-.707 2.829 2.828 2.828-2.828.707.707-2.828 2.828 2.828 2.828-.707.707z" class="cls-2" transform="translate(-7413.152 -19388.535)"/>
        </g>
    </g>
</svg>
