<svg xmlns="http://www.w3.org/2000/svg" width="20" height="20" viewBox="0 0 20 20">
    <defs>
        <style>
            .cls-2{fill:#0f1f2e}
        </style>
    </defs>
    <g id="icon-tool" transform="translate(-286 -66)">
        <path id="Box" fill="none" d="M0 0h20v20H0z" transform="translate(286 66)"/>
        <g id="Shape" transform="translate(7.344 -0.856)">
            <path id="사각형_4717" d="M.5 0h3a.456.456 0 0 1 .5.391v3.52a1.823 1.823 0 0 1-2 1.565 1.823 1.823 0 0 1-2-1.565V.391A.456.456 0 0 1 .5 0z" class="cls-2" transform="translate(285.306 78.156) rotate(45)"/>
            <path id="사각형_4718" d="M0 0h1v12H0z" class="cls-2" transform="translate(294.888 70.99) rotate(45)"/>
            <path id="사각형_4719" d="M.25 0h1.5A.25.25 0 0 1 2 .25V2a1 1 0 0 1-2 0V.25A.25.25 0 0 1 .25 0z" class="cls-2" transform="translate(295.242 69.929) rotate(45)"/>
            <path id="사각형_4720" d="M.375 0h2.25A.375.375 0 0 1 3 .375V12.5a1.5 1.5 0 1 1-3 0V.375A.375.375 0 0 1 .375 0z" class="cls-2" transform="translate(284.635 74.662) rotate(-45)"/>
            <path id="빼기_92" d="M3 5.6A3 3 0 0 1 1.5 0v2.266L3 3.6l1.5-1.334V0A3 3 0 0 1 3 5.6z" class="cls-2" transform="translate(280.656 73.099) rotate(-45)"/>
        </g>
    </g>
</svg>
