<svg xmlns="http://www.w3.org/2000/svg" width="32" height="32" viewBox="0 0 32 32">
    <defs>
        <style>
            .cls-2{fill:#222}
        </style>
    </defs>
    <g id="icon-terminal-01-filled" transform="translate(-2.383 1.001)">
        <path id="빼기_127" d="M7495.88 19401h-13a5.5 5.5 0 1 1 0-11h13a5.5 5.5 0 1 1 0 11zm0-8a2.5 2.5 0 1 0 2.5 2.5 2.5 2.5 0 0 0-2.5-2.5zm-13 0a2.5 2.5 0 1 0 2.5 2.5 2.5 2.5 0 0 0-2.495-2.5z" class="cls-2" transform="translate(-7471 -19371)"/>
        <path id="빼기_128" d="M7485.384 19430.223a11 11 0 1 1 7.779-3.223 10.924 10.924 0 0 1-7.779 3.223zm0-8a2.5 2.5 0 1 0 2.5 2.5 2.5 2.5 0 0 0-2.5-2.502zm5.5-2a1.5 1.5 0 1 0 1.5 1.5 1.5 1.5 0 0 0-1.5-1.502zm-11 0a1.5 1.5 0 1 0 1.5 1.5 1.5 1.5 0 0 0-1.501-1.502zm9.5-7a2.5 2.5 0 1 0 2.5 2.5 2.5 2.5 0 0 0-2.502-2.498zm-8 0a2.5 2.5 0 1 0 2.5 2.5 2.5 2.5 0 0 0-2.499-2.498z" class="cls-2" transform="translate(-7467 -19408.223)"/>
    </g>
</svg>
