<svg xmlns="http://www.w3.org/2000/svg" width="32" height="32" viewBox="0 0 32 32">
    <g>
        <path fill="#222" d="M7553.925 20071.684a12 12 0 0 1-7.939-21h15.877a12 12 0 0 1-7.938 21zm3.36-8a2.5 2.5 0 1 0 2.5 2.5 2.5 2.5 0 0 0-2.5-2.498zm-6.861 0a2.5 2.5 0 1 0 2.5 2.5 2.5 2.5 0 0 0-2.5-2.498zm11-6a2.5 2.5 0 1 0 2.5 2.5 2.5 2.5 0 0 0-2.499-2.498zm-7.5 0a2.5 2.5 0 1 0 2.5 2.5 2.5 2.5 0 0 0-2.499-2.498zm-7.5 0a2.5 2.5 0 1 0 2.5 2.5 2.5 2.5 0 0 0-2.5-2.498zm11-5a1.5 1.5 0 1 0 1.5 1.5 1.5 1.5 0 0 0-1.499-1.5zm-7 0a1.5 1.5 0 1 0 1.5 1.5 1.5 1.5 0 0 0-1.5-1.5z" transform="translate(-2.383 -2) translate(-7535.543 -20041.684)"/>
    </g>
</svg>
